<svg id="Layer_1" data-name="Layer 1" xmlns="http://www.w3.org/2000/svg" viewBox="0 0 29.17 29.17"><defs><style>.cls-1{fill:#fff;fill-rule:evenodd;}</style></defs><title>Facebook icon</title><path id="_Compound_Path_" data-name="&lt;Compound Path&gt;" class="cls-1" d="M24.26,1.51H7.88A6.39,6.39,0,0,0,1.48,7.9V24.29a6.39,6.39,0,0,0,6.39,6.39H24.26a6.39,6.39,0,0,0,6.39-6.39V7.9A6.39,6.39,0,0,0,24.26,1.51ZM20.63,16.16H17.52v9.56H13.27V16.16H11.14V13h2.12V10.63a4,4,0,0,1,4.27-4.16H20.7v3.3h-2c-.36,0-1.21.28-1.21,1.05V13H21Z" transform="translate(-1.48 -1.51)"/></svg>