<?xml version="1.0" encoding="UTF-8"?>
<svg width="20px" height="20px" viewBox="0 0 20 20" version="1.1" xmlns="http://www.w3.org/2000/svg" xmlns:xlink="http://www.w3.org/1999/xlink">
    <!-- Generator: sketchtool 46.2 (44496) - http://www.bohemiancoding.com/sketch -->
    <title>C5205CEF-129D-4E8E-ACFD-77461BE36020</title>
    <desc>Created with sketchtool.</desc>
    <defs></defs>
    <g id="Homepage" stroke="none" stroke-width="1" fill="none" fill-rule="evenodd" opacity="0.5">
        <g id="vw-homepage-desktop" transform="translate(-122.000000, -9.000000)" fill-rule="nonzero" fill="#FFFFFF">
            <g id="Top-Navigation">
                <g id="social-top" transform="translate(58.000000, 9.000000)">
                    <g id="facebook" transform="translate(64.000000, 0.000000)">
                        <path d="M19.9064516,3.73225806 L19.9064516,16.1741935 C19.9064516,18.2354628 18.2354628,19.9064516 16.1741935,19.9064516 L13.7387097,19.9064516 L13.7387097,12.1967742 L16.3193548,12.1967742 L16.7096774,9.19032258 L13.7419355,9.19032258 L13.7419355,7.27096774 C13.7419355,6.40322581 13.9741935,5.81935484 15.2322581,5.81935484 L16.8129032,5.81935484 L16.8129032,3.12258065 C16.0500563,3.04132729 15.2832812,3.00255776 14.516129,3.00645161 C12.2225806,3.00645161 10.6451613,4.40645161 10.6451613,6.97096774 L10.6451613,9.18709677 L8.06451613,9.18709677 L8.06451613,12.1935484 L10.6451613,12.1935484 L10.6451613,19.9032258 L3.73225806,19.9032258 C1.67224795,19.9032266 0.00178047546,18.2342029 0,16.1741935 L0,3.73225806 C-2.52432674e-16,1.67098885 1.67098885,3.78649011e-16 3.73225806,0 L16.1741935,0 C18.2354628,1.26216337e-16 19.9064516,1.67098885 19.9064516,3.73225806 Z" id="Shape"></path>
                    </g>
                </g>
            </g>
        </g>
    </g>
</svg>