<?xml version="1.0" encoding="UTF-8"?>
<svg width="193px" height="24px" viewBox="0 0 193 24" version="1.1" xmlns="http://www.w3.org/2000/svg" xmlns:xlink="http://www.w3.org/1999/xlink">
    <!-- Generator: sketchtool 46.2 (44496) - http://www.bohemiancoding.com/sketch -->
    <title>4C5F9AA0-7C64-4C46-A3F2-7D1559F26244</title>
    <desc>Created with sketchtool.</desc>
    <defs></defs>
    <g id="Homepage" stroke="none" stroke-width="1" fill="none" fill-rule="evenodd">
        <g id="vw-homepage-desktop" transform="translate(-59.000000, -2354.000000)" fill="#FFFFFF">
            <path d="M74.96,2366.26 L79.7,2366.26 L79.7,2374.63 C78.5799944,2375.45 77.2050081,2376.115 75.575,2376.625 C73.9449919,2377.135 72.4000073,2377.39 70.94,2377.39 C68.8199894,2377.39 66.9050086,2376.915 65.195,2375.965 C63.4849914,2375.015 62.1400049,2373.71001 61.16,2372.05 C60.1799951,2370.38999 59.69,2368.53001 59.69,2366.47 C59.69,2364.42999 60.194995,2362.58501 61.205,2360.935 C62.2150051,2359.28499 63.6049912,2357.99 65.375,2357.05 C67.1450088,2356.11 69.1199891,2355.64 71.3,2355.64 C72.8600078,2355.64 74.4199922,2355.925 75.98,2356.495 C77.5400078,2357.065 78.8599946,2357.83 79.94,2358.79 L76.82,2362.63 C76.0599962,2361.91 75.185005,2361.34 74.195,2360.92 C73.2049951,2360.5 72.2300048,2360.29 71.27,2360.29 C70.1499944,2360.29 69.1400045,2360.56 68.24,2361.1 C67.3399955,2361.64 66.6300026,2362.38 66.11,2363.32 C65.5899974,2364.26 65.33,2365.30999 65.33,2366.47 C65.33,2367.65001 65.5899974,2368.715 66.11,2369.665 C66.6300026,2370.615 67.3499954,2371.36 68.27,2371.9 C69.1900046,2372.44 70.2099944,2372.71 71.33,2372.71 C72.3900053,2372.71 73.5999932,2372.37 74.96,2371.69 L74.96,2366.26 Z M90.845,2361.31 C91.7350044,2360.81 92.7499943,2360.56 93.89,2360.56 L93.89,2365.45 C93.7099991,2365.43 93.4400018,2365.42 93.08,2365.42 C91.8199937,2365.42 90.8000039,2365.715 90.02,2366.305 C89.2399961,2366.895 88.7900006,2367.69999 88.67,2368.72 L88.67,2377 L83.33,2377 L83.33,2360.77 L88.67,2360.77 L88.67,2363.47 C89.2300028,2362.53 89.9549956,2361.81 90.845,2361.31 Z M108.32,2362.105 C109.560006,2363.13501 110.19,2364.57999 110.21,2366.44 L110.21,2377 L104.96,2377 L104.96,2375.17 C103.879995,2376.55001 102.250011,2377.24 100.07,2377.24 C98.3499914,2377.24 96.995005,2376.775 96.005,2375.845 C95.0149951,2374.915 94.52,2373.69001 94.52,2372.17 C94.52,2370.62999 95.0549946,2369.43 96.125,2368.57 C97.1950054,2367.71 98.72999,2367.27 100.73,2367.25 L104.96,2367.25 L104.96,2367.07 C104.96,2366.29 104.695003,2365.69 104.165,2365.27 C103.634997,2364.85 102.870005,2364.64 101.87,2364.64 C101.189997,2364.64 100.425004,2364.75 99.575,2364.97 C98.7249958,2365.19 97.8700043,2365.51 97.01,2365.93 L95.54,2362.33 C96.8600066,2361.73 98.124994,2361.285 99.335,2360.995 C100.545006,2360.705 101.799993,2360.56 103.1,2360.56 C105.340011,2360.56 107.079994,2361.07499 108.32,2362.105 Z M103.82,2373.025 C104.420003,2372.635 104.799999,2372.13 104.96,2371.51 L104.96,2370.1 L101.78,2370.1 C100.279993,2370.1 99.53,2370.65999 99.53,2371.78 C99.53,2372.34 99.7249981,2372.785 100.115,2373.115 C100.505002,2373.445 101.039997,2373.61 101.72,2373.61 C102.520004,2373.61 103.219997,2373.415 103.82,2373.025 Z M119.48,2364.25 C119.019998,2364.25 118.650001,2364.335 118.37,2364.505 C118.089999,2364.675 117.95,2364.93 117.95,2365.27 C117.95,2365.63 118.169998,2365.92 118.61,2366.14 C119.050002,2366.36 119.749995,2366.6 120.71,2366.86 C121.870006,2367.2 122.834996,2367.535 123.605,2367.865 C124.375004,2368.195 125.039997,2368.695 125.6,2369.365 C126.160003,2370.035 126.44,2370.90999 126.44,2371.99 C126.44,2373.63001 125.805006,2374.915 124.535,2375.845 C123.264994,2376.775 121.61001,2377.24 119.57,2377.24 C118.189993,2377.24 116.870006,2377.045 115.61,2376.655 C114.349994,2376.265 113.230005,2375.69 112.25,2374.93 L113.93,2371.48 C114.850005,2372.12 115.814995,2372.615 116.825,2372.965 C117.835005,2373.315 118.789996,2373.49 119.69,2373.49 C120.210003,2373.49 120.624998,2373.405 120.935,2373.235 C121.245002,2373.065 121.4,2372.82 121.4,2372.5 C121.4,2372.1 121.175002,2371.79 120.725,2371.57 C120.274998,2371.35 119.570005,2371.11 118.61,2370.85 C117.469994,2370.51 116.530004,2370.175 115.79,2369.845 C115.049996,2369.515 114.405003,2369.02 113.855,2368.36 C113.304997,2367.7 113.03,2366.84001 113.03,2365.78 C113.03,2364.13999 113.649994,2362.855 114.89,2361.925 C116.130006,2360.995 117.72999,2360.53 119.69,2360.53 C120.870006,2360.53 122.034994,2360.69 123.185,2361.01 C124.335006,2361.33 125.419995,2361.8 126.44,2362.42 L124.64,2365.9 C122.539989,2364.79999 120.820007,2364.25 119.48,2364.25 Z M144.41,2377 L139.88,2370.16 C139.239997,2370.2 138.750002,2370.22 138.41,2370.22 L132.65,2370.22 L132.65,2377 L130.58,2377 L130.58,2356.03 L138.41,2356.03 C141.030013,2356.03 143.054993,2356.63499 144.485,2357.845 C145.915007,2359.05501 146.63,2360.76999 146.63,2362.99 C146.63,2364.73001 146.210004,2366.17999 145.37,2367.34 C144.529996,2368.50001 143.330008,2369.31 141.77,2369.77 L146.81,2377 L144.41,2377 Z M138.41,2368.36 C140.41001,2368.36 141.949995,2367.905 143.03,2366.995 C144.110005,2366.085 144.65,2364.77001 144.65,2363.05 C144.65,2361.36999 144.110005,2360.09 143.03,2359.21 C141.949995,2358.33 140.41001,2357.89 138.41,2357.89 L132.65,2357.89 L132.65,2368.36 L138.41,2368.36 Z M162.29,2362.225 C163.490006,2362.895 164.429997,2363.82999 165.11,2365.03 C165.790003,2366.23001 166.13,2367.58999 166.13,2369.11 C166.13,2370.65001 165.790003,2372.02499 165.11,2373.235 C164.429997,2374.44501 163.490006,2375.385 162.29,2376.055 C161.089994,2376.725 159.730008,2377.06 158.21,2377.06 C156.689992,2377.06 155.330006,2376.725 154.13,2376.055 C152.929994,2375.385 151.990003,2374.44501 151.31,2373.235 C150.629997,2372.02499 150.29,2370.65001 150.29,2369.11 C150.29,2367.58999 150.629997,2366.23001 151.31,2365.03 C151.990003,2363.82999 152.929994,2362.895 154.13,2362.225 C155.330006,2361.555 156.689992,2361.22 158.21,2361.22 C159.730008,2361.22 161.089994,2361.555 162.29,2362.225 Z M155.15,2363.74 C154.249996,2364.26 153.550003,2364.99 153.05,2365.93 C152.549998,2366.87 152.3,2367.93999 152.3,2369.14 C152.3,2370.36001 152.549998,2371.44 153.05,2372.38 C153.550003,2373.32 154.249996,2374.05 155.15,2374.57 C156.050005,2375.09 157.069994,2375.35 158.21,2375.35 C159.350006,2375.35 160.369995,2375.09 161.27,2374.57 C162.170005,2374.05 162.869998,2373.32 163.37,2372.38 C163.870002,2371.44 164.12,2370.36001 164.12,2369.14 C164.12,2367.93999 163.870002,2366.87 163.37,2365.93 C162.869998,2364.99 162.170005,2364.26 161.27,2363.74 C160.369995,2363.22 159.350006,2362.96 158.21,2362.96 C157.069994,2362.96 156.050005,2363.22 155.15,2363.74 Z M160.43,2354.59 L162.5,2355.49 L158.72,2358.49 L156.92,2358.28 L160.43,2354.59 Z M178.31,2375.92 C177.229995,2376.66 176.070006,2377.05 174.83,2377.09 C173.629994,2377.09 172.680003,2376.72 171.98,2375.98 C171.279996,2375.24 170.93,2374.13001 170.93,2372.65 L170.93,2363.29 L168.68,2363.29 L168.65,2361.73 L170.93,2361.73 L170.93,2357.68 L172.94,2357.68 L172.94,2361.73 L178.04,2361.7 L178.04,2363.29 L172.94,2363.29 L172.94,2372.32 C172.94,2374.26001 173.659993,2375.23 175.1,2375.23 C175.900004,2375.23 176.769995,2374.95 177.71,2374.39 L178.31,2375.92 Z M191.81,2377 L191.78,2374.36 C191.159997,2375.28 190.350005,2375.965 189.35,2376.415 C188.349995,2376.865 187.200007,2377.09 185.9,2377.09 C184.839995,2377.09 183.905004,2376.885 183.095,2376.475 C182.284996,2376.065 181.660002,2375.5 181.22,2374.78 C180.779998,2374.06 180.56,2373.25 180.56,2372.35 C180.56,2370.98999 181.084995,2369.92 182.135,2369.14 C183.185005,2368.36 184.629991,2367.97 186.47,2367.97 L191.75,2367.97 L191.75,2366.77 C191.75,2365.52999 191.380004,2364.57 190.64,2363.89 C189.899996,2363.21 188.820007,2362.87 187.4,2362.87 C185.719992,2362.87 184.030009,2363.49999 182.33,2364.76 L181.43,2363.38 C182.490005,2362.64 183.499995,2362.095 184.46,2361.745 C185.420005,2361.395 186.519994,2361.22 187.76,2361.22 C189.66001,2361.22 191.129995,2361.695 192.17,2362.645 C193.210005,2363.595 193.74,2364.90999 193.76,2366.59 L193.79,2377 L191.81,2377 Z M189.815,2374.435 C190.785005,2373.785 191.439998,2372.87001 191.78,2371.69 L191.78,2369.53 L186.71,2369.53 C185.329993,2369.53 184.280004,2369.76 183.56,2370.22 C182.839996,2370.68 182.48,2371.37 182.48,2372.29 C182.48,2373.23 182.824997,2373.985 183.515,2374.555 C184.205003,2375.125 185.119994,2375.41 186.26,2375.41 C187.660007,2375.41 188.844995,2375.085 189.815,2374.435 Z M203.405,2362.195 C204.375005,2361.565 205.539993,2361.24 206.9,2361.22 L206.9,2363.11 C205.239992,2363.09 203.905005,2363.575 202.895,2364.565 C201.884995,2365.555 201.310001,2366.89999 201.17,2368.6 L201.17,2377 L199.16,2377 L199.16,2361.28 L201.17,2361.28 L201.17,2364.94 C201.690003,2363.73999 202.434995,2362.825 203.405,2362.195 Z M210.14,2361.28 L212.15,2361.28 L212.15,2377 L210.14,2377 L210.14,2361.28 Z M212.15,2355.745 C212.410001,2356.015 212.54,2356.35 212.54,2356.75 C212.54,2357.15 212.405001,2357.49 212.135,2357.77 C211.864999,2358.05 211.540002,2358.19 211.16,2358.19 C210.759998,2358.19 210.425001,2358.05 210.155,2357.77 C209.884999,2357.49 209.75,2357.15 209.75,2356.75 C209.75,2356.35 209.884999,2356.015 210.155,2355.745 C210.425001,2355.475 210.759998,2355.34 211.16,2355.34 C211.560002,2355.34 211.889999,2355.475 212.15,2355.745 Z M230.645,2362.855 C231.715005,2363.94501 232.25,2365.43999 232.25,2367.34 L232.25,2377 L230.21,2377 L230.21,2367.82 C230.21,2366.33999 229.800004,2365.18 228.98,2364.34 C228.159996,2363.5 227.020007,2363.08 225.56,2363.08 C223.939992,2363.1 222.645005,2363.6 221.675,2364.58 C220.704995,2365.56 220.150001,2366.87999 220.01,2368.54 L220.01,2377 L218,2377 L218,2361.28 L220.01,2361.28 L220.01,2364.94 C220.550003,2363.71999 221.344995,2362.8 222.395,2362.18 C223.445005,2361.56 224.719992,2361.24 226.22,2361.22 C228.100009,2361.22 229.574995,2361.76499 230.645,2362.855 Z M250.265,2362.855 C251.335005,2363.94501 251.87,2365.43999 251.87,2367.34 L251.87,2377 L249.83,2377 L249.83,2367.82 C249.83,2366.33999 249.420004,2365.18 248.6,2364.34 C247.779996,2363.5 246.640007,2363.08 245.18,2363.08 C243.559992,2363.1 242.265005,2363.6 241.295,2364.58 C240.324995,2365.56 239.770001,2366.87999 239.63,2368.54 L239.63,2377 L237.62,2377 L237.62,2361.28 L239.63,2361.28 L239.63,2364.94 C240.170003,2363.71999 240.964995,2362.8 242.015,2362.18 C243.065005,2361.56 244.339992,2361.24 245.84,2361.22 C247.720009,2361.22 249.194995,2361.76499 250.265,2362.855 Z" id="GrasRótarinn"></path>
        </g>
    </g>
</svg>