<?xml version="1.0" encoding="UTF-8"?>
<svg width="21px" height="21px" viewBox="0 0 21 21" version="1.1" xmlns="http://www.w3.org/2000/svg" xmlns:xlink="http://www.w3.org/1999/xlink">
    <!-- Generator: sketchtool 46.2 (44496) - http://www.bohemiancoding.com/sketch -->
    <title>3E4396DD-8479-4DEA-BC4C-B81F93AE5A81</title>
    <desc>Created with sketchtool.</desc>
    <defs></defs>
    <g id="Homepage" stroke="none" stroke-width="1" fill="none" fill-rule="evenodd" opacity="0.5">
        <g id="vw-homepage-desktop" transform="translate(-58.000000, -9.000000)" fill-rule="nonzero" fill="#FFFFFF">
            <g id="Top-Navigation">
                <g id="social-top" transform="translate(58.000000, 9.000000)">
                    <g id="instagram">
                        <path d="M20.7440625,14.7 C20.6620312,16.366875 20.2846875,17.8434375 19.0640625,19.0640625 C17.8434375,20.2846875 16.366875,20.671875 14.7,20.7440625 C13.2628125,20.8260937 11.8420312,20.8129687 10.4048437,20.8129687 C8.96765625,20.8129687 7.546875,20.8129687 6.1096875,20.7440625 C4.44609375,20.671875 2.953125,20.2814062 1.74890625,19.0640625 C0.5446875,17.8467187 0.1509375,16.366875 0.06890625,14.7 C0,13.2660937 0,11.8420312 0,10.4048437 C0,8.96765625 0,7.546875 0.06890625,6.1096875 C0.1509375,4.44609375 0.52828125,2.953125 1.74890625,1.74890625 C2.96953125,0.5446875 4.44609375,0.1509375 6.1096875,0.06890625 C7.546875,0 8.9709375,0 10.4048437,0 C11.83875,0 13.2660937,0 14.7,0.06890625 C16.366875,0.1509375 17.8434375,0.52828125 19.0640625,1.74890625 C20.2846875,2.96953125 20.6620312,4.44609375 20.7440625,6.11296875 C20.8260937,7.55015625 20.8129687,8.9709375 20.8129687,10.408125 C20.8129687,11.8453125 20.8260937,13.2660937 20.7440625,14.7 Z M4.265625,2.296875 C3.81795733,2.468393 3.4127358,2.73480936 3.0778125,3.0778125 C2.73497017,3.41286835 2.46857843,3.81805242 2.296875,4.265625 C1.74890625,5.6371875 1.8703125,8.88890625 1.8703125,10.4048437 C1.8703125,11.9207812 1.74890625,15.1757812 2.296875,16.5440625 C2.47008338,16.9934058 2.73876992,17.3997942 3.084375,17.7351562 C3.41675072,18.0797422 3.81970888,18.3483809 4.265625,18.5226562 C5.63390625,19.0640625 8.885625,18.9426562 10.4048437,18.9426562 C11.9240625,18.9426562 15.1725,19.0640625 16.5407812,18.5226562 C17.4379288,18.16216 18.149035,17.4510538 18.5095312,16.5539062 C19.0509375,15.185625 18.9295312,11.9339062 18.9295312,10.4146875 C18.9295312,8.89546875 19.0640625,5.6371875 18.5226562,4.265625 C18.350316,3.81662831 18.0827774,3.41028297 17.7384375,3.07453125 C17.4011572,2.73208431 16.993685,2.4667796 16.5440625,2.296875 C15.1757812,1.74890625 11.9240625,1.8703125 10.4048437,1.8703125 C8.885625,1.8703125 5.6371875,1.74890625 4.265625,2.296875 Z M10.4048437,15.75 C7.45813152,15.7463755 5.07160882,13.3559357 5.07281699,10.4092214 C5.07402515,7.46250723 7.46250723,5.07402515 10.4092214,5.07281699 C13.3559357,5.07160882 15.7463755,7.45813152 15.75,10.4048437 C15.7534965,11.8235363 15.1914706,13.1851302 14.1883004,14.1883004 C13.1851302,15.1914706 11.8235363,15.7534965 10.4048437,15.75 Z M10.4048437,6.943125 C9.00145828,6.94312751 7.73638389,7.78885893 7.19994664,9.08567267 C6.66350939,10.3824864 6.9614456,11.8747695 7.95472826,12.8661727 C8.94801092,13.857576 10.4408556,14.1526853 11.736651,13.613793 C13.0324465,13.0749006 13.8757804,11.8082267 13.873125,10.4048437 C13.8695137,8.49086275 12.3188247,6.94017379 10.4048437,6.9365625 L10.4048437,6.943125 Z M15.96,6.103125 C15.27137,6.103125 14.713125,5.54488005 14.713125,4.85625 C14.713125,4.16761995 15.27137,3.609375 15.96,3.609375 C16.64863,3.609375 17.206875,4.16761995 17.206875,4.85625 C17.2060059,5.18607192 17.0741506,5.50203983 16.8403159,5.73464379 C16.6064812,5.96724775 16.2898219,6.09743389 15.96,6.0965625 L15.96,6.103125 Z" id="Shape"></path>
                    </g>
                </g>
            </g>
        </g>
    </g>
</svg>