<svg id="Layer_1" data-name="Layer 1" xmlns="http://www.w3.org/2000/svg" viewBox="0 0 18.68 18.68"><defs><style>.cls-1{fill:#fff;}</style></defs><title>Instagram icon</title><g id="_Group_" data-name="&lt;Group&gt;"><path id="_Compound_Path_" data-name="&lt;Compound Path&gt;" class="cls-1" d="M25.7,13a6.86,6.86,0,0,0-.43-2.27A4.78,4.78,0,0,0,22.53,8a6.86,6.86,0,0,0-2.27-.43c-1,0-1.31-.06-3.85-.06s-2.85,0-3.85.06A6.86,6.86,0,0,0,10.29,8a4.78,4.78,0,0,0-2.73,2.73A6.85,6.85,0,0,0,7.13,13c0,1-.06,1.31-.06,3.85s0,2.85.06,3.85A6.85,6.85,0,0,0,7.56,23a4.78,4.78,0,0,0,2.73,2.73,6.86,6.86,0,0,0,2.27.43c1,0,1.31.06,3.85.06s2.85,0,3.85-.06a6.86,6.86,0,0,0,2.27-.43A4.78,4.78,0,0,0,25.26,23a6.86,6.86,0,0,0,.43-2.27c0-1,.06-1.31.06-3.85S25.74,14,25.7,13ZM24,20.62a5.17,5.17,0,0,1-.32,1.73,3.09,3.09,0,0,1-1.77,1.77,5.17,5.17,0,0,1-1.73.32c-1,0-1.28.05-3.77.05s-2.79,0-3.77-.05a5.17,5.17,0,0,1-1.73-.32,3.09,3.09,0,0,1-1.77-1.77,5.17,5.17,0,0,1-.32-1.73c0-1-.05-1.28-.05-3.77s0-2.79.05-3.77a5.17,5.17,0,0,1,.32-1.73A3.09,3.09,0,0,1,10.9,9.56a5.17,5.17,0,0,1,1.73-.32c1,0,1.28-.05,3.77-.05s2.79,0,3.77.05a5.17,5.17,0,0,1,1.73.32,3.09,3.09,0,0,1,1.77,1.77A5.17,5.17,0,0,1,24,13.07c0,1,.05,1.28.05,3.77S24.06,19.63,24,20.62Z" transform="translate(-7.07 -7.5)"/><path id="_Compound_Path_2" data-name="&lt;Compound Path&gt;" class="cls-1" d="M16.41,12a4.8,4.8,0,1,0,4.8,4.8A4.8,4.8,0,0,0,16.41,12Zm0,7.91a3.11,3.11,0,1,1,3.11-3.11A3.11,3.11,0,0,1,16.41,20Z" transform="translate(-7.07 -7.5)"/><circle id="_Path_" data-name="&lt;Path&gt;" class="cls-1" cx="14.33" cy="3.8" r="1.12"/></g></svg>