<svg xmlns="http://www.w3.org/2000/svg" viewBox="0 0 17.9 14.55"><defs><style>.cls-1{fill:#fff;}</style></defs><title>twitter-1</title><g id="Layer_2" data-name="Layer 2"><g id="All"><path id="twitter-1" class="cls-1" d="M17.9,1.72a7.34,7.34,0,0,1-2.11.58,3.68,3.68,0,0,0,1.61-2,7.34,7.34,0,0,1-2.33.89A3.68,3.68,0,0,0,8.82,4.51,10.43,10.43,0,0,1,1.25.67a3.68,3.68,0,0,0,1.14,4.9A3.65,3.65,0,0,1,.72,5.12,3.68,3.68,0,0,0,3.67,8.76,3.68,3.68,0,0,1,2,8.83a3.68,3.68,0,0,0,3.43,2.55A7.39,7.39,0,0,1,0,12.9a10.4,10.4,0,0,0,5.63,1.65A10.39,10.39,0,0,0,16.07,3.62,7.47,7.47,0,0,0,17.9,1.72Z"/></g></g></svg>