<?xml version="1.0" encoding="UTF-8"?>
<svg width="20px" height="20px" viewBox="0 0 20 20" version="1.1" xmlns="http://www.w3.org/2000/svg" xmlns:xlink="http://www.w3.org/1999/xlink">
    <!-- Generator: sketchtool 46.2 (44496) - http://www.bohemiancoding.com/sketch -->
    <title>5C7918F2-6FCC-4912-9F3D-92B83D74C774</title>
    <desc>Created with sketchtool.</desc>
    <defs></defs>
    <g id="Homepage" stroke="none" stroke-width="1" fill="none" fill-rule="evenodd" opacity="0.5">
        <g id="vw-homepage-desktop" transform="translate(-90.000000, -9.000000)" fill-rule="nonzero" fill="#FFFFFF">
            <g id="Top-Navigation">
                <g id="social-top" transform="translate(58.000000, 9.000000)">
                    <g id="twitter" transform="translate(32.000000, 0.000000)">
                        <path d="M20,16.2502026 C20,18.3211585 18.3211585,20 16.2502026,20 L3.74979744,20 C1.6788415,20 2.53618956e-16,18.3211585 0,16.2502026 L0,3.74979744 C-2.53618956e-16,1.6788415 1.6788415,3.80428435e-16 3.74979744,0 L16.2502026,0 C18.3211585,1.26809478e-16 20,1.6788415 20,3.74979744 L20,16.2502026 Z M15.0899368,6.71852212 C15.6671392,6.37214544 16.0981298,5.82706907 16.302058,5.18554529 C15.7622752,5.49991401 15.1724765,5.71917004 14.5584184,5.83373845 C13.7893555,5.01830677 12.6006376,4.75458667 11.5588889,5.16828519 C10.5171403,5.58198372 9.83320379,6.58937112 9.83309026,7.71025766 C9.82819998,7.92066027 9.84997974,8.13083503 9.89790958,8.33576406 C7.69879842,8.23599871 5.64494418,7.20907159 4.24566521,5.50964187 C4.00050096,5.92869398 3.86973825,6.40480437 3.86647221,6.89029331 C3.85420487,7.79811467 4.30015209,8.65101919 5.05266569,9.15896937 C4.60284861,9.14122841 4.16152549,9.03089763 3.75627937,8.83487279 L3.75627937,8.86080052 C3.78113723,10.1798605 4.72841469,11.3003544 6.02495544,11.5443202 C5.81498846,11.6098212 5.59668441,11.6447498 5.37676228,11.6480311 C5.20608397,11.6436457 5.03598478,11.6263107 4.86793064,11.5961757 C5.22848484,12.7085772 6.25275013,13.4715768 7.4218117,13.4986226 C6.43823733,14.2591346 5.22635183,14.6646194 3.98314698,14.6491655 C3.76649165,14.6494325 3.5500229,14.6364444 3.33495382,14.6102739 C4.58713653,15.4109226 6.04249326,15.8360577 7.52876357,15.8353589 C12.5555015,15.8353589 15.3070815,11.6674769 15.3070815,8.057041 C15.3135023,7.94045457 15.3135023,7.82360312 15.3070815,7.70701669 C15.8483072,7.32419057 16.3123396,6.84256458 16.6747691,6.28747367 C16.1697531,6.50600603 15.6360684,6.65115954 15.0899368,6.71852212 Z" id="Shape"></path>
                    </g>
                </g>
            </g>
        </g>
    </g>
</svg>