<svg id="Layer_1" data-name="Layer 1" xmlns="http://www.w3.org/2000/svg" viewBox="0 0 29.17 29.17"><defs><style>.cls-1{fill:#fff;fill-rule:evenodd;}</style></defs><title>Twitter Icon</title><path id="_Compound_Path_" data-name="&lt;Compound Path&gt;" class="cls-1" d="M24.24,1.46H7.86A6.39,6.39,0,0,0,1.46,7.86V24.24a6.39,6.39,0,0,0,6.39,6.39H24.24a6.39,6.39,0,0,0,6.39-6.39V7.86A6.39,6.39,0,0,0,24.24,1.46Zm.21,11.11c0,.18,0,.35,0,.53A11.64,11.64,0,0,1,6.55,22.91a8.38,8.38,0,0,0,1,.06,8.25,8.25,0,0,0,5.1-1.75,4.06,4.06,0,0,1-3.79-2.84,4.74,4.74,0,0,0,.83.07,5,5,0,0,0,1.2-.14,3.89,3.89,0,0,1-3-4v-.05c0,.31.94.49,1.61.51a4.33,4.33,0,0,1-2.06-3.41,4.08,4.08,0,0,1,.55-2.06,11.62,11.62,0,0,0,8.44,4.28,4.1,4.1,0,0,1,7-3.73,8.19,8.19,0,0,0,2.6-1,4.11,4.11,0,0,1-1.8,2.26,8.19,8.19,0,0,0,2.35-.64A8.3,8.3,0,0,1,24.45,12.57Z" transform="translate(-1.46 -1.46)"/></svg>